<?xml version="1.0" encoding="UTF-8" standalone="no"?>
<!DOCTYPE svg PUBLIC "-//W3C//DTD SVG 1.1//EN"
 "http://www.w3.org/Graphics/SVG/1.1/DTD/svg11.dtd">
<!-- Generated by graphviz version 2.40.1 (20161225.0304)
 -->
<!-- Title: fsm Pages: 1 -->
<svg width="118pt" height="133pt"
 viewBox="0.00 0.00 117.95 132.80" xmlns="http://www.w3.org/2000/svg" xmlns:xlink="http://www.w3.org/1999/xlink">
<g id="graph0" class="graph" transform="scale(1 1) rotate(0) translate(4 128.8)">
<title>fsm</title>
<polygon fill="#ffffff" stroke="transparent" points="-4,4 -4,-128.8 113.9531,-128.8 113.9531,4 -4,4"/>
<!-- Closed -->
<g id="node1" class="node">
<title>Closed</title>
<ellipse fill="none" stroke="#000000" cx="41.0667" cy="-106.8" rx="37.7198" ry="18"/>
<text text-anchor="middle" x="41.0667" y="-102.6" font-family="Times,serif" font-size="14.00" fill="#000000">Closed</text>
</g>
<!-- Opened -->
<g id="node2" class="node">
<title>Opened</title>
<ellipse fill="none" stroke="#000000" cx="41.0667" cy="-18" rx="41.1335" ry="18"/>
<text text-anchor="middle" x="41.0667" y="-13.8" font-family="Times,serif" font-size="14.00" fill="#000000">Opened</text>
</g>
<!-- Closed&#45;&gt;Opened -->
<g id="edge1" class="edge">
<title>Closed&#45;&gt;Opened</title>
<path fill="none" stroke="#0000ff" d="M20.0805,-91.41C13.9521,-85.6965 8.0247,-78.6672 4.7455,-70.8 .3753,-60.3153 5.2675,-49.7957 12.7294,-40.9366"/>
<polygon fill="#0000ff" stroke="#0000ff" points="15.3603,-43.2504 19.78,-33.6214 10.3203,-38.3926 15.3603,-43.2504"/>
<text text-anchor="middle" x="30.7273" y="-58.2" font-family="Times,serif" font-size="14.00" fill="#000000"> doOpen </text>
</g>
<!-- Opened&#45;&gt;Closed -->
<g id="edge2" class="edge">
<title>Opened&#45;&gt;Closed</title>
<path fill="none" stroke="#ff0000" d="M50.1433,-35.8731C52.5642,-41.5245 54.8451,-47.8918 56.0667,-54 57.531,-61.3217 57.531,-63.4783 56.0667,-70.8 55.4621,-73.823 54.5981,-76.9094 53.586,-79.9411"/>
<polygon fill="#ff0000" stroke="#ff0000" points="50.3117,-78.7046 49.9852,-89.2944 56.8443,-81.2196 50.3117,-78.7046"/>
<text text-anchor="middle" x="83.5099" y="-58.2" font-family="Times,serif" font-size="14.00" fill="#000000"> doClose </text>
</g>
</g>
</svg>
