<?xml version="1.0" encoding="UTF-8" standalone="no"?>
<!DOCTYPE svg PUBLIC "-//W3C//DTD SVG 1.1//EN"
 "http://www.w3.org/Graphics/SVG/1.1/DTD/svg11.dtd">
<!-- Generated by graphviz version 2.40.1 (20161225.0304)
 -->
<!-- Title: fsm Pages: 1 -->
<svg width="133pt" height="139pt"
 viewBox="0.00 0.00 132.60 138.81" xmlns="http://www.w3.org/2000/svg" xmlns:xlink="http://www.w3.org/1999/xlink">
<g id="graph0" class="graph" transform="scale(1 1) rotate(0) translate(4 134.8092)">
<title>fsm</title>
<polygon fill="#ffffff" stroke="transparent" points="-4,4 -4,-134.8092 128.6007,-134.8092 128.6007,4 -4,4"/>
<!-- Closed -->
<g id="node1" class="node">
<title>Closed</title>
<ellipse fill="none" stroke="#000000" cx="41.7143" cy="-112.8092" rx="37.7198" ry="18"/>
<text text-anchor="middle" x="41.7143" y="-108.6092" font-family="Times,serif" font-size="14.00" fill="#000000">Closed</text>
</g>
<!-- Opened -->
<g id="node2" class="node">
<title>Opened</title>
<ellipse fill="none" stroke="#000000" cx="41.7143" cy="-24.0092" rx="41.1335" ry="18"/>
<text text-anchor="middle" x="41.7143" y="-19.8092" font-family="Times,serif" font-size="14.00" fill="#000000">Opened</text>
</g>
<!-- Closed&#45;&gt;Opened -->
<g id="edge1" class="edge">
<title>Closed:n&#45;&gt;Opened:n</title>
<path fill="none" stroke="#0000ff" d="M41.7143,-130.8092C41.7143,-130.8092 79.5739,-94.8092 79.5739,-94.8092 58.6029,-68.141 26.3641,-103.4773 5.3931,-76.8092 -11.3824,-55.4763 16.0694,-46.769 31.8367,-43.6038"/>
<polygon fill="#0000ff" stroke="#0000ff" points="32.4,-47.0583 41.7143,-42.0092 31.2842,-40.1478 32.4,-47.0583"/>
<text text-anchor="middle" x="31.3749" y="-64.2092" font-family="Times,serif" font-size="14.00" fill="#000000"> doOpen </text>
</g>
<!-- Opened&#45;&gt;Closed -->
<g id="edge2" class="edge">
<title>Opened:s&#45;&gt;Closed:s</title>
<path fill="none" stroke="#ff0000" d="M41.7143,-6.0092C41.7143,3.1168 76.328,.4438 82.781,-6.0092 94.0947,-17.3229 87.836,-26.8287 82.781,-42.0092 76.6757,-60.3438 68.6965,-61.648 56.7143,-76.8092 53.1831,-81.2772 49.028,-83.1272 45.9876,-85.5896"/>
<polygon fill="#ff0000" stroke="#ff0000" points="42.7441,-84.2645 41.7143,-94.8092 49.0951,-87.2082 42.7441,-84.2645"/>
<text text-anchor="middle" x="98.1575" y="-64.2092" font-family="Times,serif" font-size="14.00" fill="#000000"> doClose </text>
</g>
</g>
</svg>
